Saira-PARAMETRIC-JUN_REGULAR.ufo
<glyph name="comma" format="2">
  <advance width="210"/>
  <unicode hex="002C"/>
  <outline>
    <contour>
      <point x="39" y="-120" type="line"/>
      <point x="139" y="-120"/>
      <point x="160" y="-100"/>
      <point x="160" y="0" type="curve" smooth="yes"/>
      <point x="160" y="110" type="line"/>
      <point x="50" y="110" type="line"/>
      <point x="50" y="0" type="line"/>
      <point x="97" y="0" type="line"/>
      <point x="97" y="-27" type="line" smooth="yes"/>
      <point x="97" y="-67"/>
      <point x="87" y="-75"/>
      <point x="39" y="-75" type="curve"/>
    </contour>
  </outline>
</glyph>
<glyph name="period" format="2">
  <advance width="210"/>
  <unicode hex="002E"/>
  <outline>
    <contour>
      <point x="50" y="0" type="line"/>
      <point x="160" y="0" type="line"/>
      <point x="160" y="110" type="line"/>
      <point x="50" y="110" type="line"/>
    </contour>
  </outline>
</glyph>
<glyph name="two" format="2">
  <advance width="609.63043"/>
  <unicode hex="0032"/>
  <outline>
    <contour>
      <point x="69.674" y="0" type="line"/>
      <point x="538.87" y="0" type="line"/>
      <point x="538.87" y="74.761" type="line"/>
      <point x="153.5" y="74.761" type="line"/>
      <point x="153.5" y="121.739" type="line" smooth="yes"/>
      <point x="153.5" y="192.239"/>
      <point x="155.391" y="218.913"/>
      <point x="208.13" y="241.196" type="curve" smooth="yes"/>
      <point x="414.5" y="327.978" type="line" smooth="yes"/>
      <point x="503.522" y="365.63"/>
      <point x="538.87" y="402.065"/>
      <point x="538.87" y="520.587" type="curve" smooth="yes"/>
      <point x="538.87" y="681.565"/>
      <point x="437.348" y="696"/>
      <point x="310" y="696" type="curve" smooth="yes"/>
      <point x="236.37" y="696"/>
      <point x="141.022" y="688.826"/>
      <point x="83.674" y="678.652" type="curve"/>
      <point x="83.674" y="609.152" type="line"/>
      <point x="149.217" y="616.239"/>
      <point x="234.87" y="621.783"/>
      <point x="283.522" y="621.783" type="curve" smooth="yes"/>
      <point x="417.587" y="621.783"/>
      <point x="452.87" y="607.391"/>
      <point x="452.87" y="511.587" type="curve" smooth="yes"/>
      <point x="452.87" y="446.37"/>
      <point x="439.13" y="425.065"/>
      <point x="368.478" y="395.326" type="curve" smooth="yes"/>
      <point x="186.935" y="318.37" type="line" smooth="yes"/>
      <point x="74.565" y="271.087"/>
      <point x="69.674" y="232.5"/>
      <point x="69.674" y="80.239" type="curve" smooth="yes"/>
    </contour>
  </outline>
</glyph>
<glyph name="three" format="2">
  <advance width="601.43478"/>
  <unicode hex="0033"/>
  <outline>
    <contour>
      <point x="263.891" y="-8" type="curve" smooth="yes"/>
      <point x="484.413" y="-8"/>
      <point x="526.761" y="66.522"/>
      <point x="526.761" y="184" type="curve" smooth="yes"/>
      <point x="526.761" y="296"/>
      <point x="478.391" y="335.283"/>
      <point x="401.761" y="349.457" type="curve"/>
      <point x="401.761" y="353.457" type="line"/>
      <point x="476.935" y="369.543"/>
      <point x="519.304" y="415"/>
      <point x="519.304" y="515" type="curve" smooth="yes"/>
      <point x="519.304" y="638.304"/>
      <point x="460.587" y="696"/>
      <point x="264.891" y="696" type="curve" smooth="yes"/>
      <point x="203.543" y="696"/>
      <point x="118.652" y="688.913"/>
      <point x="63.565" y="678.739" type="curve"/>
      <point x="63.565" y="609.239" type="line"/>
      <point x="115.848" y="616.239"/>
      <point x="193.109" y="621.783"/>
      <point x="247.913" y="621.783" type="curve" smooth="yes"/>
      <point x="380.609" y="621.783"/>
      <point x="432.217" y="610.391"/>
      <point x="432.217" y="502.674" type="curve" smooth="yes"/>
      <point x="432.217" y="405.5"/>
      <point x="375.413" y="385.565"/>
      <point x="307.87" y="385.565" type="curve" smooth="yes"/>
      <point x="178.565" y="385.565" type="line"/>
      <point x="178.565" y="311.348" type="line"/>
      <point x="307.87" y="311.348" type="line" smooth="yes"/>
      <point x="404.37" y="311.348"/>
      <point x="439.674" y="279.391"/>
      <point x="439.674" y="186.783" type="curve" smooth="yes"/>
      <point x="439.674" y="77.065"/>
      <point x="376.696" y="66.217"/>
      <point x="257.913" y="66.217" type="curve" smooth="yes"/>
      <point x="210.826" y="66.217"/>
      <point x="128.652" y="71.217"/>
      <point x="59.565" y="78.217" type="curve"/>
      <point x="59.565" y="9.261" type="line"/>
      <point x="114.652" y="-0.37"/>
      <point x="201.543" y="-8"/>
    </contour>
  </outline>
</glyph>
<glyph name="question" format="2">
  <advance width="503.06522"/>
  <unicode hex="003F"/>
  <outline>
    <contour>
      <point x="153.674" y="196.913" type="line"/>
      <point x="230.435" y="196.913" type="line"/>
      <point x="230.435" y="259.63" type="line" smooth="yes"/>
      <point x="230.435" y="314.891"/>
      <point x="234.522" y="316.804"/>
      <point x="313.239" y="345.022" type="curve" smooth="yes"/>
      <point x="348.913" y="356.913" type="line" smooth="yes"/>
      <point x="416.804" y="380.848"/>
      <point x="432.304" y="434.783"/>
      <point x="432.304" y="521.239" type="curve" smooth="yes"/>
      <point x="432.304" y="652.239"/>
      <point x="375.196" y="696"/>
      <point x="229.587" y="696" type="curve" smooth="yes"/>
      <point x="175.065" y="696"/>
      <point x="95.087" y="689.457"/>
      <point x="38.37" y="680.37" type="curve"/>
      <point x="38.37" y="610.326" type="line"/>
      <point x="92.217" y="616.783"/>
      <point x="161.13" y="621.783"/>
      <point x="201.217" y="621.783" type="curve" smooth="yes"/>
      <point x="308.826" y="621.783"/>
      <point x="346.304" y="613.848"/>
      <point x="346.304" y="517.848" type="curve" smooth="yes"/>
      <point x="346.304" y="436.696"/>
      <point x="334.935" y="423.217"/>
      <point x="263.5" y="398.283" type="curve" smooth="yes"/>
      <point x="227.891" y="386.109" type="line" smooth="yes"/>
      <point x="174.848" y="367.913"/>
      <point x="153.674" y="351.848"/>
      <point x="153.674" y="276.848" type="curve" smooth="yes"/>
    </contour>
    <contour>
      <point x="144.957" y="0" type="line"/>
      <point x="239.696" y="0" type="line"/>
      <point x="239.696" y="97.609" type="line"/>
      <point x="144.957" y="97.609" type="line"/>
    </contour>
  </outline>
</glyph>
<glyph name="A" format="2">
  <advance width="626"/>
  <unicode hex="0041"/>
  <anchor x="313" y="0" name="bottom"/>
  <anchor x="563" y="10" name="ogonek"/>
  <anchor x="313" y="688" name="top"/>
  <outline>
    <contour>
      <point x="10" y="0" type="line"/>
      <point x="97" y="0" type="line"/>
      <point x="310" y="620" type="line"/>
      <point x="316" y="620" type="line"/>
      <point x="529" y="0" type="line"/>
      <point x="616" y="0" type="line"/>
      <point x="377" y="688" type="line"/>
      <point x="249" y="688" type="line"/>
    </contour>
    <contour>
      <point x="125" y="189" type="line"/>
      <point x="500" y="189" type="line"/>
      <point x="473" y="263" type="line"/>
      <point x="152" y="263" type="line"/>
    </contour>
  </outline>
</glyph>
<glyph name="F" format="2">
  <advance width="573"/>
  <unicode hex="0046"/>
  <anchor x="287" y="0" name="bottom"/>
  <anchor x="287" y="688" name="top"/>
  <outline>
    <contour>
      <point x="145" y="375" type="line"/>
      <point x="145" y="301" type="line"/>
      <point x="486" y="301" type="line"/>
      <point x="486" y="375" type="line"/>
    </contour>
    <contour>
      <point x="182" y="0" type="line"/>
      <point x="182" y="651" type="line"/>
      <point x="145" y="614" type="line"/>
      <point x="533" y="614" type="line"/>
      <point x="533" y="688" type="line"/>
      <point x="100" y="688" type="line"/>
      <point x="100" y="0" type="line"/>
    </contour>
  </outline>
</glyph>
<glyph name="I" format="2">
  <advance width="282"/>
  <unicode hex="0049"/>
  <anchor x="141" y="0" name="bottom"/>
  <anchor x="254" y="10" name="ogonek"/>
  <anchor x="141" y="688" name="top"/>
  <anchor x="20" y="688" name="topleft"/>
  <outline>
    <contour>
      <point x="100" y="0" type="line"/>
      <point x="182" y="0" type="line"/>
      <point x="182" y="688" type="line"/>
      <point x="100" y="688" type="line"/>
    </contour>
  </outline>
</glyph>
<glyph name="K" format="2">
  <advance width="647"/>
  <unicode hex="004B"/>
  <anchor x="332" y="0" name="bottom"/>
  <anchor x="332" y="688" name="top"/>
  <outline>
    <contour>
      <point x="177" y="313" type="line"/>
      <point x="311" y="313" type="line"/>
      <point x="538" y="0" type="line"/>
      <point x="637" y="0" type="line"/>
      <point x="380" y="350" type="line"/>
      <point x="627" y="688" type="line"/>
      <point x="528" y="688" type="line"/>
      <point x="311" y="387" type="line"/>
      <point x="177" y="387" type="line"/>
    </contour>
    <contour>
      <point x="100" y="0" type="line"/>
      <point x="182" y="0" type="line"/>
      <point x="182" y="688" type="line"/>
      <point x="100" y="688" type="line"/>
    </contour>
  </outline>
</glyph>
<glyph name="L" format="2">
  <advance width="543"/>
  <unicode hex="004C"/>
  <anchor x="272" y="0" name="bottom"/>
  <anchor x="272" y="344" name="center"/>
  <anchor x="272" y="688" name="top"/>
  <anchor x="523" y="688" name="topright"/>
  <outline>
    <contour>
      <point x="100" y="0" type="line"/>
      <point x="523" y="0" type="line"/>
      <point x="523" y="74" type="line"/>
      <point x="145" y="74" type="line"/>
      <point x="182" y="37" type="line"/>
      <point x="182" y="688" type="line"/>
      <point x="100" y="688" type="line"/>
    </contour>
  </outline>
</glyph>
<glyph name="M" format="2">
  <advance width="816"/>
  <unicode hex="004D"/>
  <outline>
    <contour>
      <point x="100" y="0" type="line"/>
      <point x="182" y="0" type="line"/>
      <point x="182" y="585" type="line"/>
      <point x="361" y="0" type="line"/>
      <point x="455" y="0" type="line"/>
      <point x="634" y="585" type="line"/>
      <point x="634" y="0" type="line"/>
      <point x="716" y="0" type="line"/>
      <point x="716" y="688" type="line"/>
      <point x="585" y="688" type="line"/>
      <point x="408" y="105" type="line"/>
      <point x="231" y="688" type="line"/>
      <point x="100" y="688" type="line"/>
    </contour>
  </outline>
</glyph>
<glyph name="N" format="2">
  <advance width="714"/>
  <unicode hex="004E"/>
  <anchor x="357" y="0" name="bottom"/>
  <anchor x="357" y="688" name="top"/>
  <outline>
    <contour>
      <point x="100" y="0" type="line"/>
      <point x="182" y="0" type="line"/>
      <point x="182" y="542" type="line"/>
      <point x="526" y="0" type="line"/>
      <point x="614" y="0" type="line"/>
      <point x="614" y="688" type="line"/>
      <point x="532" y="688" type="line"/>
      <point x="532" y="146" type="line"/>
      <point x="188" y="688" type="line"/>
      <point x="100" y="688" type="line"/>
    </contour>
  </outline>
</glyph>
<glyph name="O" format="2">
  <advance width="708"/>
  <unicode hex="004F"/>
  <anchor x="354" y="-2" name="bottom"/>
  <anchor x="354" y="344" name="center"/>
  <anchor x="637" y="10" name="ogonek"/>
  <anchor x="354" y="688" name="top"/>
  <anchor x="20" y="688" name="topleft"/>
  <anchor x="688" y="688" name="topright"/>
  <outline>
    <contour>
      <point x="354" y="-8" type="curve" smooth="yes"/>
      <point x="590" y="-8"/>
      <point x="632" y="44"/>
      <point x="632" y="339" type="curve" smooth="yes"/>
      <point x="632" y="349" type="line" smooth="yes"/>
      <point x="632" y="644"/>
      <point x="590" y="696"/>
      <point x="354" y="696" type="curve" smooth="yes"/>
      <point x="118" y="696"/>
      <point x="76" y="644"/>
      <point x="76" y="349" type="curve" smooth="yes"/>
      <point x="76" y="339" type="line" smooth="yes"/>
      <point x="76" y="44"/>
      <point x="118" y="-8"/>
    </contour>
    <contour>
      <point x="354" y="66" type="curve" smooth="yes"/>
      <point x="171" y="66"/>
      <point x="158" y="83"/>
      <point x="158" y="310" type="curve" smooth="yes"/>
      <point x="158" y="378" type="line" smooth="yes"/>
      <point x="158" y="605"/>
      <point x="171" y="622"/>
      <point x="354" y="622" type="curve" smooth="yes"/>
      <point x="537" y="622"/>
      <point x="550" y="605"/>
      <point x="550" y="378" type="curve" smooth="yes"/>
      <point x="550" y="310" type="line" smooth="yes"/>
      <point x="550" y="83"/>
      <point x="537" y="66"/>
    </contour>
  </outline>
</glyph>
<glyph name="W" format="2">
  <advance width="732"/>
  <unicode hex="0057"/>
  <outline>
    <contour>
      <point x="139" y="0" type="line"/>
      <point x="262" y="0" type="line"/>
      <point x="366" y="583" type="line"/>
      <point x="470" y="0" type="line"/>
      <point x="593" y="0" type="line"/>
      <point x="722" y="688" type="line"/>
      <point x="640" y="688" type="line"/>
      <point x="531" y="103" type="line"/>
      <point x="424" y="688" type="line"/>
      <point x="308" y="688" type="line"/>
      <point x="201" y="103" type="line"/>
      <point x="92" y="688" type="line"/>
      <point x="10" y="688" type="line"/>
    </contour>
  </outline>
</glyph>
<glyph name="X" format="2">
  <advance width="594"/>
  <unicode hex="0058"/>
  <anchor x="294" y="0" name="bottom"/>
  <anchor x="294" y="510" name="top"/>
  <outline>
    <contour>
      <point x="476" y="0" type="line"/>
      <point x="574" y="0" type="line"/>
      <point x="128" y="688" type="line"/>
      <point x="30" y="688" type="line"/>
    </contour>
    <contour>
      <point x="20" y="0" type="line"/>
      <point x="118" y="0" type="line"/>
      <point x="564" y="688" type="line"/>
      <point x="466" y="688" type="line"/>
    </contour>
  </outline>
</glyph>
<glyph name="a" format="2">
  <advance width="586"/>
  <unicode hex="0061"/>
  <anchor x="293" y="0" name="bottom"/>
  <anchor x="527" y="10" name="ogonek"/>
  <anchor x="293" y="510" name="top"/>
  <outline>
    <contour>
      <point x="236" y="-8" type="curve" smooth="yes"/>
      <point x="331" y="-8"/>
      <point x="384" y="17"/>
      <point x="408" y="73" type="curve"/>
      <point x="412" y="73" type="line"/>
      <point x="421" y="0" type="line"/>
      <point x="491" y="0" type="line"/>
      <point x="491" y="259" type="line" smooth="yes"/>
      <point x="491" y="479"/>
      <point x="459" y="518"/>
      <point x="276" y="518" type="curve" smooth="yes"/>
      <point x="218" y="518"/>
      <point x="158" y="513"/>
      <point x="89" y="503" type="curve"/>
      <point x="89" y="435" type="line"/>
      <point x="146" y="444"/>
      <point x="205" y="448"/>
      <point x="276" y="448" type="curve" smooth="yes"/>
      <point x="400" y="448"/>
      <point x="409" y="436"/>
      <point x="409" y="279" type="curve" smooth="yes"/>
      <point x="409" y="241" type="line" smooth="yes"/>
      <point x="409" y="95"/>
      <point x="382" y="62"/>
      <point x="258" y="62" type="curve" smooth="yes"/>
      <point x="162" y="62"/>
      <point x="145" y="75"/>
      <point x="145" y="149" type="curve" smooth="yes"/>
      <point x="145" y="219"/>
      <point x="167" y="235"/>
      <point x="258" y="235" type="curve" smooth="yes"/>
      <point x="423" y="235" type="line"/>
      <point x="423" y="305" type="line"/>
      <point x="246" y="305" type="line" smooth="yes"/>
      <point x="110" y="305"/>
      <point x="63" y="263"/>
      <point x="63" y="143" type="curve" smooth="yes"/>
      <point x="63" y="34"/>
      <point x="111" y="-8"/>
    </contour>
  </outline>
</glyph>
<glyph name="b" format="2">
  <advance width="619"/>
  <unicode hex="0062"/>
  <anchor x="310" y="0" name="bottom"/>
  <anchor x="155" y="594" name="center"/>
  <anchor x="310" y="510" name="top"/>
  <outline>
    <contour>
      <point x="365" y="-8" type="curve" smooth="yes"/>
      <point x="519" y="-8"/>
      <point x="549" y="34"/>
      <point x="549" y="251" type="curve" smooth="yes"/>
      <point x="549" y="259" type="line" smooth="yes"/>
      <point x="549" y="476"/>
      <point x="519" y="518"/>
      <point x="365" y="518" type="curve" smooth="yes"/>
      <point x="267" y="518"/>
      <point x="211" y="493"/>
      <point x="186" y="437" type="curve"/>
      <point x="182" y="437" type="line"/>
      <point x="182" y="743" type="line"/>
      <point x="100" y="743" type="line"/>
      <point x="100" y="0" type="line"/>
      <point x="173" y="0" type="line"/>
      <point x="182" y="73" type="line"/>
      <point x="186" y="73" type="line"/>
      <point x="211" y="17"/>
      <point x="267" y="-8"/>
    </contour>
    <contour>
      <point x="345" y="62" type="curve" smooth="yes"/>
      <point x="211" y="62"/>
      <point x="182" y="95"/>
      <point x="182" y="244" type="curve" smooth="yes"/>
      <point x="182" y="266" type="line" smooth="yes"/>
      <point x="182" y="415"/>
      <point x="211" y="448"/>
      <point x="345" y="448" type="curve" smooth="yes"/>
      <point x="449" y="448"/>
      <point x="467" y="427"/>
      <point x="467" y="307" type="curve" smooth="yes"/>
      <point x="467" y="203" type="line" smooth="yes"/>
      <point x="467" y="83"/>
      <point x="449" y="62"/>
    </contour>
  </outline>
</glyph>
<glyph name="f" format="2">
  <advance width="342"/>
  <unicode hex="0066"/>
  <anchor x="180" y="0" name="bottom"/>
  <anchor x="180" y="743" name="top"/>
  <outline>
    <contour>
      <point x="123" y="0" type="line"/>
      <point x="205" y="0" type="line"/>
      <point x="205" y="598" type="line" smooth="yes"/>
      <point x="205" y="661"/>
      <point x="226" y="673"/>
      <point x="337" y="673" type="curve"/>
      <point x="337" y="743" type="line"/>
      <point x="170" y="743"/>
      <point x="123" y="710"/>
      <point x="123" y="591" type="curve" smooth="yes"/>
    </contour>
    <contour>
      <point x="20" y="440" type="line"/>
      <point x="140" y="440" type="line"/>
      <point x="140" y="510" type="line"/>
      <point x="20" y="510" type="line"/>
    </contour>
    <contour>
      <point x="189" y="440" type="line"/>
      <point x="337" y="440" type="line"/>
      <point x="337" y="510" type="line"/>
      <point x="189" y="510" type="line"/>
    </contour>
  </outline>
</glyph>
<glyph name="h" format="2">
  <advance width="623"/>
  <unicode hex="0068"/>
  <anchor x="312" y="0" name="bottom"/>
  <anchor x="312" y="510" name="top"/>
  <outline>
    <contour>
      <point x="100" y="0" type="line"/>
      <point x="182" y="0" type="line"/>
      <point x="182" y="269" type="line" smooth="yes"/>
      <point x="182" y="415"/>
      <point x="209" y="448"/>
      <point x="333" y="448" type="curve" smooth="yes"/>
      <point x="429" y="448"/>
      <point x="446" y="427"/>
      <point x="446" y="307" type="curve" smooth="yes"/>
      <point x="446" y="0" type="line"/>
      <point x="528" y="0" type="line"/>
      <point x="528" y="319" type="line" smooth="yes"/>
      <point x="528" y="463"/>
      <point x="480" y="518"/>
      <point x="355" y="518" type="curve" smooth="yes"/>
      <point x="259" y="518"/>
      <point x="206" y="493"/>
      <point x="182" y="437" type="curve"/>
      <point x="182" y="743" type="line"/>
      <point x="100" y="743" type="line"/>
    </contour>
  </outline>
</glyph>
<glyph name="m" format="2">
  <advance width="969"/>
  <unicode hex="006D"/>
  <anchor x="312" y="0" name="bottom"/>
  <anchor x="312" y="510" name="top"/>
  <outline>
    <contour>
      <point x="100" y="0" type="line"/>
      <point x="182" y="0" type="line"/>
      <point x="182" y="266" type="line" smooth="yes"/>
      <point x="182" y="415"/>
      <point x="209" y="448"/>
      <point x="333" y="448" type="curve" smooth="yes"/>
      <point x="429" y="448"/>
      <point x="446" y="427"/>
      <point x="446" y="307" type="curve" smooth="yes"/>
      <point x="446" y="0" type="line"/>
      <point x="528" y="0" type="line"/>
      <point x="528" y="266" type="line" smooth="yes"/>
      <point x="528" y="415"/>
      <point x="555" y="448"/>
      <point x="679" y="448" type="curve" smooth="yes"/>
      <point x="775" y="448"/>
      <point x="792" y="427"/>
      <point x="792" y="307" type="curve" smooth="yes"/>
      <point x="792" y="0" type="line"/>
      <point x="874" y="0" type="line"/>
      <point x="874" y="319" type="line" smooth="yes"/>
      <point x="874" y="472"/>
      <point x="834" y="518"/>
      <point x="701" y="518" type="curve" smooth="yes"/>
      <point x="605" y="518"/>
      <point x="549" y="493"/>
      <point x="519" y="437" type="curve"/>
      <point x="515" y="437" type="line"/>
      <point x="493" y="499"/>
      <point x="445" y="518"/>
      <point x="355" y="518" type="curve" smooth="yes"/>
      <point x="260" y="518"/>
      <point x="207" y="493"/>
      <point x="183" y="437" type="curve"/>
      <point x="179" y="437" type="line"/>
      <point x="170" y="510" type="line"/>
      <point x="100" y="510" type="line"/>
    </contour>
  </outline>
</glyph>
<glyph name="n" format="2">
  <advance width="623"/>
  <unicode hex="006E"/>
  <anchor x="312" y="0" name="bottom"/>
  <anchor x="312" y="510" name="top"/>
  <outline>
    <contour>
      <point x="100" y="0" type="line"/>
      <point x="182" y="0" type="line"/>
      <point x="182" y="269" type="line" smooth="yes"/>
      <point x="182" y="415"/>
      <point x="209" y="448"/>
      <point x="333" y="448" type="curve" smooth="yes"/>
      <point x="429" y="448"/>
      <point x="446" y="427"/>
      <point x="446" y="307" type="curve" smooth="yes"/>
      <point x="446" y="0" type="line"/>
      <point x="528" y="0" type="line"/>
      <point x="528" y="319" type="line" smooth="yes"/>
      <point x="528" y="463"/>
      <point x="480" y="518"/>
      <point x="355" y="518" type="curve" smooth="yes"/>
      <point x="260" y="518"/>
      <point x="207" y="493"/>
      <point x="183" y="437" type="curve"/>
      <point x="179" y="437" type="line"/>
      <point x="170" y="510" type="line"/>
      <point x="100" y="510" type="line"/>
    </contour>
  </outline>
</glyph>
<glyph name="o" format="2">
  <advance width="588"/>
  <unicode hex="006F"/>
  <anchor x="294" y="0" name="bottom"/>
  <anchor x="294" y="255" name="center"/>
  <anchor x="529" y="10" name="ogonek"/>
  <anchor x="294" y="510" name="top"/>
  <anchor x="568" y="510" name="topright"/>
  <outline>
    <contour>
      <point x="294" y="-8" type="curve" smooth="yes"/>
      <point x="484" y="-8"/>
      <point x="518" y="31"/>
      <point x="518" y="251" type="curve" smooth="yes"/>
      <point x="518" y="259" type="line" smooth="yes"/>
      <point x="518" y="479"/>
      <point x="484" y="518"/>
      <point x="294" y="518" type="curve" smooth="yes"/>
      <point x="103" y="518"/>
      <point x="70" y="471"/>
      <point x="70" y="259" type="curve" smooth="yes"/>
      <point x="70" y="251" type="line" smooth="yes"/>
      <point x="70" y="31"/>
      <point x="104" y="-8"/>
    </contour>
    <contour>
      <point x="294" y="62" type="curve" smooth="yes"/>
      <point x="162" y="62"/>
      <point x="152" y="73"/>
      <point x="152" y="231" type="curve" smooth="yes"/>
      <point x="152" y="279" type="line" smooth="yes"/>
      <point x="152" y="437"/>
      <point x="162" y="448"/>
      <point x="294" y="448" type="curve" smooth="yes"/>
      <point x="426" y="448"/>
      <point x="436" y="437"/>
      <point x="436" y="279" type="curve" smooth="yes"/>
      <point x="436" y="231" type="line" smooth="yes"/>
      <point x="436" y="73"/>
      <point x="426" y="62"/>
    </contour>
  </outline>
</glyph>
<glyph name="r" format="2">
  <advance width="399"/>
  <unicode hex="0072"/>
  <anchor x="200" y="0" name="bottom"/>
  <anchor x="200" y="510" name="top"/>
  <outline>
    <contour>
      <point x="100" y="0" type="line"/>
      <point x="182" y="0" type="line"/>
      <point x="182" y="266" type="line" smooth="yes"/>
      <point x="182" y="415"/>
      <point x="212" y="448"/>
      <point x="348" y="448" type="curve" smooth="yes"/>
      <point x="370" y="448" type="line"/>
      <point x="370" y="518" type="line"/>
      <point x="266" y="518"/>
      <point x="210" y="493"/>
      <point x="183" y="437" type="curve"/>
      <point x="179" y="437" type="line"/>
      <point x="170" y="510" type="line"/>
      <point x="100" y="510" type="line"/>
    </contour>
  </outline>
</glyph>
<glyph name="s" format="2">
  <advance width="501"/>
  <unicode hex="0073"/>
  <guideline x="235" y="222" angle="353.1183" name=""/>
  <guideline x="68" y="188" angle="90.7935" name=""/>
  <guideline x="425" y="325" angle="93.5264" name=""/>
  <anchor x="251" y="0" name="bottom"/>
  <anchor x="251" y="510" name="top"/>
  <outline>
    <contour>
      <point x="249" y="-8" type="curve" smooth="yes"/>
      <point x="392" y="-8"/>
      <point x="436" y="28"/>
      <point x="436" y="146" type="curve" smooth="yes"/>
      <point x="436" y="241"/>
      <point x="409" y="275"/>
      <point x="322" y="286" type="curve" smooth="yes"/>
      <point x="206" y="300" type="line" smooth="yes"/>
      <point x="156" y="306"/>
      <point x="147" y="316"/>
      <point x="147" y="367" type="curve" smooth="yes"/>
      <point x="147" y="435"/>
      <point x="165" y="448"/>
      <point x="260" y="448" type="curve" smooth="yes"/>
      <point x="308" y="448"/>
      <point x="369" y="443"/>
      <point x="414" y="435" type="curve"/>
      <point x="414" y="503" type="line"/>
      <point x="354" y="513"/>
      <point x="291" y="518"/>
      <point x="252" y="518" type="curve" smooth="yes"/>
      <point x="110" y="518"/>
      <point x="65" y="482"/>
      <point x="65" y="368" type="curve" smooth="yes"/>
      <point x="65" y="276"/>
      <point x="94" y="239"/>
      <point x="177" y="229" type="curve" smooth="yes"/>
      <point x="293" y="215" type="line" smooth="yes"/>
      <point x="348" y="208"/>
      <point x="354" y="200"/>
      <point x="354" y="146" type="curve" smooth="yes"/>
      <point x="354" y="76"/>
      <point x="335" y="62"/>
      <point x="240" y="62" type="curve" smooth="yes"/>
      <point x="187" y="62"/>
      <point x="120" y="67"/>
      <point x="70" y="75" type="curve"/>
      <point x="70" y="7" type="line"/>
      <point x="136" y="-3"/>
      <point x="206" y="-8"/>
    </contour>
  </outline>
</glyph>
<glyph name="u" format="2">
  <advance width="623"/>
  <unicode hex="0075"/>
  <anchor x="312" y="0" name="bottom"/>
  <anchor x="561" y="10" name="ogonek"/>
  <anchor x="312" y="510" name="top"/>
  <anchor x="603" y="510" name="topright"/>
  <outline>
    <contour>
      <point x="523" y="510" type="line"/>
      <point x="441" y="510" type="line"/>
      <point x="441" y="241" type="line" smooth="yes"/>
      <point x="441" y="95"/>
      <point x="414" y="62"/>
      <point x="290" y="62" type="curve" smooth="yes"/>
      <point x="194" y="62"/>
      <point x="177" y="83"/>
      <point x="177" y="203" type="curve" smooth="yes"/>
      <point x="177" y="510" type="line"/>
      <point x="95" y="510" type="line"/>
      <point x="95" y="191" type="line" smooth="yes"/>
      <point x="95" y="47"/>
      <point x="143" y="-8"/>
      <point x="268" y="-8" type="curve" smooth="yes"/>
      <point x="363" y="-8"/>
      <point x="416" y="17"/>
      <point x="440" y="73" type="curve"/>
      <point x="444" y="73" type="line"/>
      <point x="453" y="0" type="line"/>
      <point x="523" y="0" type="line"/>
    </contour>
  </outline>
</glyph>
<glyph name="v" format="2">
  <advance width="528"/>
  <unicode hex="0076"/>
  <anchor x="263" y="0" name="bottom"/>
  <anchor x="263" y="510" name="top"/>
  <outline>
    <contour>
      <point x="219" y="0" type="line"/>
      <point x="309" y="0" type="line"/>
      <point x="503" y="510" type="line"/>
      <point x="418" y="510" type="line"/>
      <point x="266" y="90" type="line"/>
      <point x="262" y="90" type="line"/>
      <point x="110" y="510" type="line"/>
      <point x="25" y="510" type="line"/>
    </contour>
  </outline>
</glyph>
<glyph name="w" format="2">
  <advance width="678"/>
  <unicode hex="0077"/>
  <anchor x="341" y="0" name="bottom"/>
  <anchor x="341" y="510" name="top"/>
  <outline>
    <contour>
      <point x="125" y="0" type="line"/>
      <point x="246" y="0" type="line"/>
      <point x="339" y="428" type="line"/>
      <point x="432" y="0" type="line"/>
      <point x="553" y="0" type="line"/>
      <point x="653" y="510" type="line"/>
      <point x="569" y="510" type="line"/>
      <point x="494" y="90" type="line"/>
      <point x="490" y="90" type="line"/>
      <point x="398" y="510" type="line"/>
      <point x="280" y="510" type="line"/>
      <point x="188" y="90" type="line"/>
      <point x="184" y="90" type="line"/>
      <point x="109" y="510" type="line"/>
      <point x="25" y="510" type="line"/>
    </contour>
  </outline>
</glyph>
<glyph name="x" format="2">
  <advance width="502"/>
  <unicode hex="0078"/>
  <anchor x="248" y="0" name="bottom"/>
  <anchor x="248" y="510" name="top"/>
  <outline>
    <contour>
      <point x="383" y="0" type="line"/>
      <point x="482" y="0" type="line"/>
      <point x="118" y="510" type="line"/>
      <point x="20" y="510" type="line"/>
    </contour>
    <contour>
      <point x="20" y="0" type="line"/>
      <point x="119" y="0" type="line"/>
      <point x="482" y="510" type="line"/>
      <point x="383" y="510" type="line"/>
    </contour>
  </outline>
</glyph>
<glyph name="bar" format="2">
  <advance width="362"/>
  <unicode hex="007C"/>
  <outline>
    <contour>
      <point x="140" y="-161" type="line"/>
      <point x="222" y="-161" type="line"/>
      <point x="222" y="743" type="line"/>
      <point x="140" y="743" type="line"/>
    </contour>
  </outline>
</glyph>
<glyph name="Oslash" format="2">
  <advance width="716.76087"/>
  <unicode hex="00D8"/>
  <anchor x="360.283" y="0" name="bottom"/>
  <anchor x="360.283" y="688" name="top"/>
  <outline>
    <contour>
      <point x="520.174" y="631.565" type="line"/>
      <point x="587.087" y="654.957" type="line"/>
      <point x="622.457" y="743" type="line"/>
      <point x="546.804" y="703.283" type="line"/>
    </contour>
    <contour>
      <point x="80.761" y="-55" type="line"/>
      <point x="147.652" y="-55" type="line"/>
      <point x="213.065" y="52.283" type="line"/>
      <point x="158.804" y="72.087" type="line"/>
    </contour>
    <component base="O"/>
  </outline>
</glyph>
<glyph name="ae" format="2">
  <advance width="897.19565"/>
  <unicode hex="00E6"/>
  <anchor x="448.87" y="0" name="bottom"/>
  <anchor x="448.87" y="510" name="top"/>
  <outline>
    <contour>
      <point x="233.783" y="-8" type="curve" smooth="yes"/>
      <point x="305.37" y="-8"/>
      <point x="389.109" y="-1.174"/>
      <point x="431.717" y="71.261" type="curve"/>
      <point x="459.609" y="12.283"/>
      <point x="514.87" y="-8"/>
      <point x="631.087" y="-8" type="curve" smooth="yes"/>
      <point x="694" y="-8"/>
      <point x="769.174" y="-2.457"/>
      <point x="811.435" y="6.087" type="curve"/>
      <point x="811.435" y="71.696" type="line"/>
      <point x="764.891" y="65.326"/>
      <point x="696.609" y="60.413"/>
      <point x="648.587" y="60.413" type="curve" smooth="yes"/>
      <point x="494.717" y="60.413"/>
      <point x="483.239" y="90.913"/>
      <point x="483.239" y="230.696" type="curve"/>
      <point x="831.435" y="230.696" type="line"/>
      <point x="831.435" y="256.739" type="line" smooth="yes"/>
      <point x="831.435" y="446.87"/>
      <point x="822.065" y="518"/>
      <point x="627.022" y="518" type="curve" smooth="yes"/>
      <point x="531.304" y="518"/>
      <point x="477.848" y="501.261"/>
      <point x="446.957" y="461.217" type="curve"/>
      <point x="419.978" y="503.087"/>
      <point x="368.522" y="518"/>
      <point x="273.196" y="518" type="curve" smooth="yes"/>
      <point x="197.391" y="518"/>
      <point x="131.217" y="511.37"/>
      <point x="89.043" y="504.37" type="curve"/>
      <point x="89.043" y="438.217" type="line"/>
      <point x="117.717" y="443.587"/>
      <point x="199.696" y="449.043"/>
      <point x="244.522" y="449.043" type="curve" smooth="yes"/>
      <point x="378.217" y="449.043"/>
      <point x="400.957" y="440.391"/>
      <point x="400.957" y="320.739" type="curve" smooth="yes"/>
      <point x="400.957" y="289.326" type="line"/>
      <point x="337.283" y="290.413"/>
      <point x="258.478" y="291.5"/>
      <point x="210.565" y="291.5" type="curve" smooth="yes"/>
      <point x="89.304" y="291.5"/>
      <point x="55.217" y="253.065"/>
      <point x="55.217" y="140.174" type="curve" smooth="yes"/>
      <point x="55.217" y="24.152"/>
      <point x="113.761" y="-8"/>
    </contour>
    <contour>
      <point x="253.435" y="59.326" type="curve" smooth="yes"/>
      <point x="154.63" y="59.326"/>
      <point x="134.783" y="73.804"/>
      <point x="134.783" y="146.696" type="curve" smooth="yes"/>
      <point x="134.783" y="221.587"/>
      <point x="152.717" y="231.239"/>
      <point x="231.435" y="231.239" type="curve" smooth="yes"/>
      <point x="400.957" y="231.239" type="line"/>
      <point x="400.957" y="208.913" type="line" smooth="yes"/>
      <point x="400.957" y="168.152"/>
      <point x="396.043" y="138.674"/>
      <point x="383.935" y="112" type="curve" smooth="yes"/>
      <point x="362.913" y="66.043"/>
      <point x="312.565" y="59.326"/>
    </contour>
    <contour>
      <point x="753.5" y="251.761" type="curve"/>
      <point x="789.609" y="288.239" type="line"/>
      <point x="483.239" y="288.239" type="line"/>
      <point x="483.783" y="425.304"/>
      <point x="498.522" y="449.587"/>
      <point x="624.565" y="449.587" type="curve" smooth="yes"/>
      <point x="741.109" y="449.587"/>
      <point x="754.413" y="424.304"/>
    </contour>
  </outline>
</glyph>
<glyph name="Hbar" format="2">
  <advance width="731.47826"/>
  <unicode hex="0126"/>
  <outline>
    <contour>
      <point x="99.783" y="0" type="line"/>
      <point x="185.783" y="0" type="line"/>
      <point x="185.783" y="277.848" type="line"/>
      <point x="545.696" y="277.848" type="line"/>
      <point x="545.696" y="0" type="line"/>
      <point x="631.696" y="0" type="line"/>
      <point x="631.696" y="688" type="line"/>
      <point x="545.696" y="688" type="line"/>
      <point x="545.696" y="551.739" type="line"/>
      <point x="185.783" y="551.739" type="line"/>
      <point x="185.783" y="688" type="line"/>
      <point x="99.783" y="688" type="line"/>
    </contour>
    <contour>
      <point x="185.783" y="354.239" type="line"/>
      <point x="185.783" y="482.957" type="line"/>
      <point x="545.696" y="482.957" type="line"/>
      <point x="545.696" y="354.239" type="line"/>
    </contour>
  </outline>
</glyph>
<glyph name="Lslash" format="2">
  <advance width="537.63043"/>
  <unicode hex="0141"/>
  <outline>
    <contour>
      <point x="35.674" y="265.978" type="line"/>
      <point x="375.413" y="391.761" type="line"/>
      <point x="375.413" y="458.913" type="line"/>
      <point x="35.674" y="333.13" type="line"/>
    </contour>
    <component base="L"/>
  </outline>
</glyph>
<glyph name="tbar" format="2">
  <advance width="358.34783"/>
  <unicode hex="0167"/>
  <outline>
    <contour>
      <point x="27.478" y="217.413" type="line"/>
      <point x="333.239" y="217.413" type="line"/>
      <point x="333.239" y="285.283" type="line"/>
      <point x="27.478" y="285.283" type="line"/>
    </contour>
    <component base="t"/>
  </outline>
</glyph>
<glyph name="Schwa" format="2">
  <advance width="696.76087"/>
  <unicode hex="018F"/>
  <anchor x="348.652" y="0" name="bottom"/>
  <anchor x="348.652" y="688" name="top"/>
  <outline>
    <contour>
      <point x="348.109" y="-8" type="curve" smooth="yes"/>
      <point x="606.978" y="-8"/>
      <point x="620.348" y="48.935"/>
      <point x="620.348" y="344" type="curve" smooth="yes"/>
      <point x="620.348" y="641.348"/>
      <point x="581.978" y="696"/>
      <point x="333.565" y="696" type="curve" smooth="yes"/>
      <point x="276.478" y="696"/>
      <point x="201.391" y="689.087"/>
      <point x="154.304" y="678.717" type="curve"/>
      <point x="154.304" y="607.217" type="line"/>
      <point x="197.13" y="615.957"/>
      <point x="262.326" y="621.783"/>
      <point x="311.609" y="621.783" type="curve" smooth="yes"/>
      <point x="503.804" y="621.783"/>
      <point x="531.717" y="602.13"/>
      <point x="534.348" y="384.565" type="curve"/>
      <point x="76.413" y="384.565" type="line"/>
      <point x="76.413" y="344" type="line" smooth="yes"/>
      <point x="76.413" y="48.935"/>
      <point x="89.239" y="-8"/>
    </contour>
    <contour>
      <point x="348.109" y="66.217" type="curve" smooth="yes"/>
      <point x="181.152" y="66.217"/>
      <point x="163.957" y="71.13"/>
      <point x="162.413" y="310.348" type="curve"/>
      <point x="534.348" y="310.348" type="line"/>
      <point x="532.804" y="71.13"/>
      <point x="515.065" y="66.217"/>
    </contour>
  </outline>
</glyph>
<glyph name="Uhorn" format="2">
  <advance width="708.30435"/>
  <unicode hex="01AF"/>
  <anchor x="552.087" y="688" name="_topright"/>
  <anchor x="354.652" y="0" name="bottom"/>
  <anchor x="354.652" y="688" name="top"/>
  <anchor x="552.087" y="782.196" name="topright"/>
  <outline>
    <contour>
      <point x="552.087" y="648.587" type="line"/>
      <point x="618.152" y="648.587" type="line" smooth="yes"/>
      <point x="715.587" y="648.587"/>
      <point x="733.217" y="671.848"/>
      <point x="733.217" y="758.543" type="curve" smooth="yes"/>
      <point x="733.217" y="782.196" type="line"/>
      <point x="674.13" y="782.196" type="line"/>
      <point x="674.13" y="751" type="line" smooth="yes"/>
      <point x="674.13" y="702"/>
      <point x="668.043" y="688"/>
      <point x="618.152" y="688" type="curve" smooth="yes"/>
      <point x="552.087" y="688" type="line"/>
    </contour>
    <component base="U"/>
  </outline>
</glyph>
<glyph name="uhorn" format="2">
  <advance width="598.56522"/>
  <unicode hex="01B0"/>
  <anchor x="430.957" y="510" name="_topright"/>
  <anchor x="299.283" y="0" name="bottom"/>
  <anchor x="299.283" y="510" name="top"/>
  <anchor x="430.957" y="604.196" name="topright"/>
  <outline>
    <contour>
      <point x="430.957" y="470.587" type="line"/>
      <point x="497.022" y="470.587" type="line" smooth="yes"/>
      <point x="594.457" y="470.587"/>
      <point x="612.087" y="493.848"/>
      <point x="612.087" y="580.543" type="curve" smooth="yes"/>
      <point x="612.087" y="604.196" type="line"/>
      <point x="553" y="604.196" type="line"/>
      <point x="553" y="573" type="line" smooth="yes"/>
      <point x="553" y="524"/>
      <point x="546.913" y="510"/>
      <point x="497.022" y="510" type="curve" smooth="yes"/>
      <point x="430.957" y="510" type="line"/>
    </contour>
    <component base="u"/>
  </outline>
</glyph>
<glyph name="brevecomb" format="2">
  <advance width="275.47826"/>
  <unicode hex="0306"/>
  <anchor x="138.239" y="510" name="_top"/>
  <anchor x="138.239" y="682.283" name="top"/>
  <outline>
    <contour>
      <point x="136.696" y="586.13" type="curve" smooth="yes"/>
      <point x="267.413" y="586.13"/>
      <point x="275.478" y="646.217"/>
      <point x="275.478" y="730.391" type="curve"/>
      <point x="222.196" y="730.391" type="line"/>
      <point x="222.196" y="670.065"/>
      <point x="220.196" y="637.5"/>
      <point x="136.696" y="637.5" type="curve" smooth="yes"/>
      <point x="53.196" y="637.5"/>
      <point x="52.739" y="670.065"/>
      <point x="52.739" y="730.391" type="curve"/>
      <point x="0" y="730.391" type="line"/>
      <point x="0" y="646.217"/>
      <point x="6.522" y="586.13"/>
    </contour>
  </outline>
</glyph>
<glyph name="fraction" format="2">
  <advance width="142.95652"/>
  <unicode hex="2044"/>
  <outline>
    <contour>
      <point x="-185.435" y="0" type="line"/>
      <point x="-120.609" y="0" type="line"/>
      <point x="328.391" y="688" type="line"/>
      <point x="263.565" y="688" type="line"/>
    </contour>
  </outline>
</glyph>
<glyph name="commercialMinusSign" format="2">
  <advance width="353.82609"/>
  <unicode hex="2052"/>
  <outline>
    <contour>
      <point x="0" y="0" type="line"/>
      <point x="61.913" y="0" type="line"/>
      <point x="353.826" y="688" type="line"/>
      <point x="291.913" y="688" type="line"/>
    </contour>
    <contour>
      <point x="237.239" y="0.457" type="line"/>
      <point x="331.978" y="0.457" type="line"/>
      <point x="331.978" y="98.065" type="line"/>
      <point x="237.239" y="98.065" type="line"/>
    </contour>
    <contour>
      <point x="21.848" y="589.935" type="line"/>
      <point x="116.587" y="589.935" type="line"/>
      <point x="116.587" y="687.543" type="line"/>
      <point x="21.848" y="687.543" type="line"/>
    </contour>
  </outline>
</glyph>
<glyph name="naira" format="2">
  <advance width="731.47826"/>
  <unicode hex="20A6"/>
  <outline>
    <contour>
      <point x="12.565" y="324.761" type="line"/>
      <point x="718.457" y="324.761" type="line"/>
      <point x="718.457" y="378.043" type="line"/>
      <point x="12.565" y="378.043" type="line"/>
    </contour>
    <component base="N"/>
  </outline>
</glyph>
<glyph name="kip" format="2">
  <advance width="670.43478"/>
  <unicode hex="20AD"/>
  <outline>
    <contour>
      <point x="25.283" y="314.435" type="line"/>
      <point x="602.609" y="314.435" type="line"/>
      <point x="602.609" y="386.196" type="line"/>
      <point x="25.283" y="386.196" type="line"/>
    </contour>
    <component base="K"/>
  </outline>
</glyph>
<glyph name="cedi" format="2">
  <advance width="574.73913"/>
  <unicode hex="20B5"/>
  <outline>
    <contour>
      <point x="323.587" y="661.609" type="line"/>
      <point x="387.848" y="661.609" type="line"/>
      <point x="387.848" y="771" type="line"/>
      <point x="323.587" y="771" type="line"/>
    </contour>
    <contour>
      <point x="323.587" y="-83" type="line"/>
      <point x="387.848" y="-83" type="line"/>
      <point x="387.848" y="33.304" type="line"/>
      <point x="323.587" y="33.304" type="line"/>
    </contour>
    <component base="C"/>
  </outline>
</glyph>
<glyph name="summation" format="2">
  <advance width="705.82609"/>
  <unicode hex="2211"/>
  <outline>
    <contour>
      <point x="86.957" y="-189.457" type="line"/>
      <point x="618.87" y="-189.457" type="line"/>
      <point x="618.87" y="-115.239" type="line"/>
      <point x="195.913" y="-115.239" type="line"/>
      <point x="508.043" y="249" type="line"/>
      <point x="195.913" y="613.783" type="line"/>
      <point x="618.87" y="613.783" type="line"/>
      <point x="618.87" y="688" type="line"/>
      <point x="86.957" y="688" type="line"/>
      <point x="86.957" y="617.783" type="line"/>
      <point x="401.174" y="249" type="line"/>
      <point x="86.957" y="-119.239" type="line"/>
    </contour>
  </outline>
</glyph>
<glyph name="bulletoperator" format="2">
  <advance width="369.13043"/>
  <unicode hex="2219"/>
  <outline>
    <contour>
      <point x="75" y="232.848" type="line"/>
      <point x="294.13" y="232.848" type="line"/>
      <point x="294.13" y="454.152" type="line"/>
      <point x="75" y="454.152" type="line"/>
    </contour>
  </outline>
</glyph>
<glyph name="uniEFFD" format="2">
  <advance width="886"/>
  <unicode hex="EFFD"/>
  <outline>
    <contour>
      <point x="441" y="-85" type="curve"/>
      <point x="449" y="-85" type="line"/>
      <point x="461" y="-61"/>
      <point x="494" y="-6"/>
      <point x="581" y="-6" type="curve" smooth="yes"/>
      <point x="718" y="-6"/>
      <point x="789" y="0"/>
      <point x="789" y="97" type="curve" smooth="yes"/>
      <point x="789" y="687" type="line"/>
      <point x="97" y="687" type="line"/>
      <point x="97" y="97" type="line" smooth="yes"/>
      <point x="97" y="0"/>
      <point x="169" y="-6"/>
      <point x="307" y="-6" type="curve" smooth="yes"/>
      <point x="396" y="-6"/>
      <point x="427" y="-63"/>
    </contour>
    <contour>
      <point x="300" y="22" type="line"/>
      <point x="262" y="22"/>
      <point x="232" y="25"/>
      <point x="205" y="26" type="curve"/>
      <point x="205" y="587" type="line"/>
      <point x="300" y="587" type="line"/>
    </contour>
    <contour>
      <point x="447" y="-35" type="curve"/>
      <point x="430" y="-20"/>
      <point x="416" y="-5"/>
      <point x="396" y="4" type="curve"/>
      <point x="396" y="587" type="line"/>
      <point x="490" y="587" type="line"/>
      <point x="490" y="4" type="line"/>
      <point x="473" y="-5"/>
      <point x="455" y="-22"/>
    </contour>
    <contour>
      <point x="586" y="22" type="curve"/>
      <point x="586" y="587" type="line"/>
      <point x="681" y="587" type="line"/>
      <point x="681" y="26" type="line"/>
      <point x="659" y="25"/>
      <point x="624" y="22"/>
    </contour>
    <contour>
      <point x="349" y="753" type="line"/>
      <point x="439" y="823" type="line"/>
      <point x="537" y="753" type="line"/>
      <point x="502" y="867" type="line"/>
      <point x="594" y="940" type="line"/>
      <point x="478" y="940" type="line"/>
      <point x="439" y="1054" type="line"/>
      <point x="408" y="940" type="line"/>
      <point x="288" y="940" type="line"/>
      <point x="384" y="867" type="line"/>
    </contour>
  </outline>
</glyph>
<glyph name="apple" format="2">
  <advance width="841"/>
  <unicode hex="F8FF"/>
  <outline>
    <contour>
      <point x="72" y="0" type="line"/>
      <point x="769" y="0" type="line"/>
      <point x="769" y="698" type="line"/>
      <point x="72" y="698" type="line"/>
    </contour>
    <contour>
      <point x="422" y="135" type="curve" smooth="yes"/>
      <point x="297" y="135"/>
      <point x="224" y="216"/>
      <point x="224" y="316" type="curve" smooth="yes"/>
      <point x="224" y="382" type="line" smooth="yes"/>
      <point x="224" y="482"/>
      <point x="297" y="563"/>
      <point x="422" y="563" type="curve" smooth="yes"/>
      <point x="546" y="563"/>
      <point x="618" y="482"/>
      <point x="618" y="382" type="curve" smooth="yes"/>
      <point x="618" y="316" type="line" smooth="yes"/>
      <point x="618" y="216"/>
      <point x="546" y="135"/>
    </contour>
    <contour>
      <point x="422" y="230" type="curve" smooth="yes"/>
      <point x="456" y="230"/>
      <point x="483" y="257"/>
      <point x="483" y="290" type="curve" smooth="yes"/>
      <point x="483" y="408" type="line" smooth="yes"/>
      <point x="483" y="441"/>
      <point x="456" y="468"/>
      <point x="422" y="468" type="curve" smooth="yes"/>
      <point x="387" y="468"/>
      <point x="360" y="441"/>
      <point x="360" y="408" type="curve" smooth="yes"/>
      <point x="360" y="290" type="line" smooth="yes"/>
      <point x="360" y="257"/>
      <point x="387" y="230"/>
    </contour>
  </outline>
</glyph>
<glyph name="M.001" format="2">
  <advance width="826"/>
  <anchor x="413" y="0" name="bottom"/>
  <anchor x="413" y="688" name="top"/>
  <outline>
    <contour>
      <point x="100" y="0" type="line"/>
      <point x="182" y="0" type="line"/>
      <point x="182" y="568" type="line"/>
      <point x="186" y="568" type="line"/>
      <point x="374" y="0" type="line"/>
      <point x="452" y="0" type="line"/>
      <point x="640" y="568" type="line"/>
      <point x="644" y="568" type="line"/>
      <point x="644" y="0" type="line"/>
      <point x="726" y="0" type="line"/>
      <point x="726" y="688" type="line"/>
      <point x="600" y="688" type="line"/>
      <point x="415" y="120" type="line"/>
      <point x="411" y="120" type="line"/>
      <point x="226" y="688" type="line"/>
      <point x="100" y="688" type="line"/>
    </contour>
  </outline>
</glyph>
<glyph name="Y.001" format="2">
  <advance width="556"/>
  <anchor x="279" y="0" name="bottom"/>
  <anchor x="279" y="688" name="top"/>
  <anchor x="-14" y="688" name="topleft"/>
  <outline>
    <contour>
      <point x="237" y="0" type="line"/>
      <point x="319" y="0" type="line"/>
      <point x="319" y="300" type="line"/>
      <point x="300" y="231" type="line"/>
      <point x="546" y="688" type="line"/>
      <point x="453" y="688" type="line"/>
      <point x="280" y="350" type="line"/>
      <point x="276" y="350" type="line"/>
      <point x="103" y="688" type="line"/>
      <point x="10" y="688" type="line"/>
      <point x="256" y="231" type="line"/>
      <point x="237" y="300" type="line"/>
    </contour>
  </outline>
</glyph>
<glyph name="a.001" format="2">
  <advance width="586"/>
  <anchor x="293" y="0" name="bottom"/>
  <anchor x="527" y="10" name="ogonek"/>
  <anchor x="293" y="510" name="top"/>
  <outline>
    <contour>
      <point x="246" y="-8" type="curve" smooth="yes"/>
      <point x="335" y="-8"/>
      <point x="385" y="17"/>
      <point x="408" y="73" type="curve"/>
      <point x="412" y="73" type="line"/>
      <point x="421" y="0" type="line"/>
      <point x="491" y="0" type="line"/>
      <point x="491" y="259" type="line" smooth="yes"/>
      <point x="491" y="479"/>
      <point x="459" y="518"/>
      <point x="276" y="518" type="curve" smooth="yes"/>
      <point x="218" y="518"/>
      <point x="158" y="513"/>
      <point x="89" y="503" type="curve"/>
      <point x="89" y="435" type="line"/>
      <point x="146" y="444"/>
      <point x="205" y="448"/>
      <point x="276" y="448" type="curve" smooth="yes"/>
      <point x="400" y="448"/>
      <point x="409" y="436"/>
      <point x="409" y="279" type="curve" smooth="yes"/>
      <point x="409" y="244" type="line" smooth="yes"/>
      <point x="409" y="102"/>
      <point x="376" y="62"/>
      <point x="258" y="62" type="curve" smooth="yes"/>
      <point x="167" y="62"/>
      <point x="145" y="79"/>
      <point x="145" y="149" type="curve" smooth="yes"/>
      <point x="145" y="219"/>
      <point x="167" y="235"/>
      <point x="258" y="235" type="curve" smooth="yes"/>
      <point x="433" y="235" type="line"/>
      <point x="433" y="305" type="line"/>
      <point x="246" y="305" type="line" smooth="yes"/>
      <point x="110" y="305"/>
      <point x="63" y="265"/>
      <point x="63" y="149" type="curve" smooth="yes"/>
      <point x="63" y="33"/>
      <point x="110" y="-8"/>
    </contour>
  </outline>
</glyph>
<glyph name="caroncomb.alt" format="2">
  <advance width="115.13043"/>
  <anchor x="0" y="510" name="_topright"/>
  <outline>
    <contour>
      <point x="30" y="443.674" type="line"/>
      <point x="80.717" y="443.674" type="line"/>
      <point x="115.13" y="612.043" type="line"/>
      <point x="115.13" y="688" type="line"/>
      <point x="44.174" y="688" type="line"/>
      <point x="44.174" y="612.043" type="line"/>
    </contour>
  </outline>
</glyph>
<glyph name="circumflexcomb_acutecomb.case" format="2">
  <advance width="289.34783"/>
  <anchor x="144.674" y="510" name="_top"/>
  <anchor x="144.674" y="861.457" name="top"/>
  <outline>
    <contour>
      <point x="0" y="595.043" type="line"/>
      <point x="55.804" y="595.043" type="line"/>
      <point x="144.13" y="691.63" type="line"/>
      <point x="233" y="595.043" type="line"/>
      <point x="289.348" y="595.043" type="line"/>
      <point x="289.348" y="601.13" type="line"/>
      <point x="187.239" y="735.761" type="line"/>
      <point x="101.565" y="735.761" type="line"/>
      <point x="0" y="601.13" type="line"/>
    </contour>
    <contour>
      <point x="91.739" y="772.587" type="line"/>
      <point x="151.891" y="772.587" type="line"/>
      <point x="280.609" y="908.304" type="line"/>
      <point x="280.609" y="913.304" type="line"/>
      <point x="192.761" y="913.304" type="line"/>
      <point x="91.739" y="777.587" type="line"/>
    </contour>
  </outline>
</glyph>
<glyph name="circumflexcomb_tildecomb.case" format="2">
  <advance width="289.34783"/>
  <anchor x="144.674" y="510" name="_top"/>
  <anchor x="144.674" y="866" name="top"/>
  <outline>
    <contour>
      <point x="0" y="595.043" type="line"/>
      <point x="55.804" y="595.043" type="line"/>
      <point x="144.13" y="691.63" type="line"/>
      <point x="233" y="595.043" type="line"/>
      <point x="289.348" y="595.043" type="line"/>
      <point x="289.348" y="601.13" type="line"/>
      <point x="187.239" y="735.761" type="line"/>
      <point x="101.565" y="735.761" type="line"/>
      <point x="0" y="601.13" type="line"/>
    </contour>
    <contour>
      <point x="-26.022" y="779.978" type="curve"/>
      <point x="21.63" y="779.978" type="line"/>
      <point x="21.63" y="820.63"/>
      <point x="23.913" y="834.37"/>
      <point x="52.826" y="834.37" type="curve" smooth="yes"/>
      <point x="78.304" y="834.37"/>
      <point x="105.217" y="824.543"/>
      <point x="133.13" y="815.174" type="curve" smooth="yes"/>
      <point x="168.957" y="803.348"/>
      <point x="202.043" y="790.978"/>
      <point x="242.043" y="790.978" type="curve" smooth="yes"/>
      <point x="308.174" y="790.978"/>
      <point x="315.457" y="826.848"/>
      <point x="315.457" y="905" type="curve"/>
      <point x="268.348" y="905" type="line"/>
      <point x="268.348" y="864.348"/>
      <point x="266.065" y="850.609"/>
      <point x="237.152" y="850.609" type="curve" smooth="yes"/>
      <point x="210.043" y="850.609"/>
      <point x="184.761" y="860.435"/>
      <point x="156.848" y="869.804" type="curve" smooth="yes"/>
      <point x="121.022" y="881.63"/>
      <point x="84.935" y="894"/>
      <point x="47.935" y="894" type="curve" smooth="yes"/>
      <point x="-18.739" y="894"/>
      <point x="-26.022" y="858.13"/>
    </contour>
  </outline>
</glyph>
<glyph name="eight.tosf" format="2">
  <advance width="620"/>
  <outline>
    <contour>
      <point x="310.457" y="-7" type="curve" smooth="yes"/>
      <point x="514.348" y="-7"/>
      <point x="552.783" y="51.891"/>
      <point x="552.783" y="156.543" type="curve" smooth="yes"/>
      <point x="552.783" y="256.283"/>
      <point x="513.783" y="280.913"/>
      <point x="439.783" y="297" type="curve"/>
      <point x="439.783" y="300" type="line"/>
      <point x="513.696" y="313.63"/>
      <point x="547.239" y="353"/>
      <point x="547.239" y="438" type="curve" smooth="yes"/>
      <point x="547.239" y="541.109"/>
      <point x="497.435" y="592"/>
      <point x="310.457" y="592" type="curve" smooth="yes"/>
      <point x="123.022" y="592"/>
      <point x="73.217" y="540.652"/>
      <point x="73.217" y="438" type="curve" smooth="yes"/>
      <point x="73.217" y="351.283"/>
      <point x="108.935" y="313.087"/>
      <point x="181.217" y="300" type="curve"/>
      <point x="181.217" y="297" type="line"/>
      <point x="106.761" y="280.913"/>
      <point x="68.217" y="255.739"/>
      <point x="68.217" y="156.543" type="curve" smooth="yes"/>
      <point x="68.217" y="51.891"/>
      <point x="106.109" y="-7"/>
    </contour>
    <contour>
      <point x="310.457" y="60.239" type="curve" smooth="yes"/>
      <point x="187.717" y="60.239"/>
      <point x="151.587" y="74.174"/>
      <point x="151.587" y="160.239" type="curve" smooth="yes"/>
      <point x="151.587" y="250.13"/>
      <point x="181.435" y="263.696"/>
      <point x="310.457" y="263.696" type="curve" smooth="yes"/>
      <point x="438.935" y="263.696"/>
      <point x="469.957" y="250.13"/>
      <point x="469.957" y="160.239" type="curve" smooth="yes"/>
      <point x="469.957" y="74.174"/>
      <point x="432.739" y="60.239"/>
    </contour>
    <contour>
      <point x="310.457" y="327.761" type="curve" smooth="yes"/>
      <point x="186.261" y="327.761"/>
      <point x="157.043" y="346.609"/>
      <point x="157.043" y="425.761" type="curve" smooth="yes"/>
      <point x="157.043" y="505.457"/>
      <point x="182.891" y="524.761"/>
      <point x="310.457" y="524.761" type="curve" smooth="yes"/>
      <point x="438.109" y="524.761"/>
      <point x="464.413" y="505.457"/>
      <point x="464.413" y="425.761" type="curve" smooth="yes"/>
      <point x="464.413" y="346.609"/>
      <point x="434.652" y="327.761"/>
    </contour>
  </outline>
</glyph>
<glyph name="f_f" format="2">
  <advance width="681.08695"/>
  <anchor x="340.543" y="0" name="caret_1"/>
  <outline>
    <contour>
      <point x="129.848" y="0" type="line"/>
      <point x="211.043" y="0" type="line"/>
      <point x="211.043" y="441.043" type="line"/>
      <point x="438.674" y="441.043" type="line"/>
      <point x="438.674" y="0" type="line"/>
      <point x="519.87" y="0" type="line"/>
      <point x="519.87" y="441.043" type="line"/>
      <point x="651.522" y="441.043" type="line"/>
      <point x="651.522" y="510" type="line"/>
      <point x="519.87" y="510" type="line"/>
      <point x="519.87" y="604.913" type="line" smooth="yes"/>
      <point x="519.87" y="668.739"/>
      <point x="542.261" y="679.848"/>
      <point x="651.522" y="679.848" type="curve"/>
      <point x="651.522" y="742.457" type="line"/>
      <point x="494.87" y="742.457"/>
      <point x="438.674" y="733.174"/>
      <point x="438.674" y="590.761" type="curve" smooth="yes"/>
      <point x="438.674" y="510" type="line"/>
      <point x="211.043" y="510" type="line"/>
      <point x="211.043" y="604.913" type="line" smooth="yes"/>
      <point x="211.043" y="668.739"/>
      <point x="233.435" y="679.848"/>
      <point x="342.696" y="679.848" type="curve"/>
      <point x="342.696" y="742.457" type="line"/>
      <point x="186.043" y="742.457"/>
      <point x="129.848" y="733.174"/>
      <point x="129.848" y="590.761" type="curve" smooth="yes"/>
      <point x="129.848" y="510" type="line"/>
      <point x="26.196" y="510" type="line"/>
      <point x="26.196" y="441.043" type="line"/>
      <point x="129.848" y="441.043" type="line"/>
    </contour>
  </outline>
</glyph>
<glyph name="four.dnom" format="2">
  <advance width="370.82609"/>
  <outline>
    <contour>
      <point x="232.239" y="0" type="line"/>
      <point x="291.609" y="0" type="line"/>
      <point x="291.609" y="84.565" type="line"/>
      <point x="347.174" y="84.565" type="line"/>
      <point x="347.174" y="133.326" type="line"/>
      <point x="291.609" y="133.326" type="line"/>
      <point x="291.609" y="256.217" type="line"/>
      <point x="248.022" y="256.217" type="line"/>
      <point x="233.326" y="133.326" type="line"/>
      <point x="91.196" y="133.326" type="line"/>
      <point x="235.413" y="377.087" type="line"/>
      <point x="169.413" y="377.087" type="line"/>
      <point x="26.826" y="127.696" type="line"/>
      <point x="26.826" y="84.565" type="line"/>
      <point x="232.239" y="84.565" type="line"/>
    </contour>
  </outline>
</glyph>
<glyph name="macroncomb.case" format="2">
  <advance width="288.91304"/>
  <anchor x="144.957" y="510" name="_top"/>
  <anchor x="144.957" y="684.804" name="top"/>
  <outline>
    <contour>
      <point x="0" y="627.717" type="line"/>
      <point x="288.913" y="627.717" type="line"/>
      <point x="288.913" y="684.804" type="line"/>
      <point x="0" y="684.804" type="line"/>
    </contour>
  </outline>
</glyph>
<glyph name="n.001" format="2">
  <advance width="623"/>
  <anchor x="312" y="0" name="bottom"/>
  <anchor x="312" y="510" name="top"/>
  <outline>
    <contour>
      <point x="100" y="0" type="line"/>
      <point x="182" y="0" type="line"/>
      <point x="182" y="266" type="line" smooth="yes"/>
      <point x="182" y="415"/>
      <point x="209" y="448"/>
      <point x="333" y="448" type="curve" smooth="yes"/>
      <point x="429" y="448"/>
      <point x="446" y="427"/>
      <point x="446" y="304" type="curve" smooth="yes"/>
      <point x="446" y="0" type="line"/>
      <point x="528" y="0" type="line"/>
      <point x="528" y="319" type="line" smooth="yes"/>
      <point x="528" y="472"/>
      <point x="488" y="518"/>
      <point x="355" y="518" type="curve" smooth="yes"/>
      <point x="260" y="518"/>
      <point x="207" y="493"/>
      <point x="183" y="437" type="curve"/>
      <point x="179" y="437" type="line"/>
      <point x="170" y="510" type="line"/>
      <point x="100" y="510" type="line"/>
    </contour>
  </outline>
</glyph>
<glyph name="nine.ss01" format="2">
  <advance width="656.1087"/>
  <outline>
    <contour>
      <point x="202.978" y="0" type="line"/>
      <point x="307.587" y="0" type="line"/>
      <point x="435.891" y="96.457"/>
      <point x="594.152" y="267.652"/>
      <point x="594.152" y="466.13" type="curve" smooth="yes"/>
      <point x="594.152" y="638.174"/>
      <point x="540.304" y="696"/>
      <point x="326.826" y="696" type="curve" smooth="yes"/>
      <point x="113.435" y="696"/>
      <point x="61.413" y="630.413"/>
      <point x="61.413" y="484.935" type="curve" smooth="yes"/>
      <point x="61.413" y="334.239"/>
      <point x="102.457" y="276.413"/>
      <point x="284.717" y="276.413" type="curve" smooth="yes"/>
      <point x="384.283" y="276.413"/>
      <point x="431.935" y="286.152"/>
      <point x="464.739" y="308.717" type="curve"/>
      <point x="469.652" y="307.174" type="line"/>
      <point x="414.348" y="186.152"/>
      <point x="303.804" y="82.696"/>
      <point x="202.978" y="5.543" type="curve"/>
    </contour>
    <contour>
      <point x="327.739" y="349.543" type="curve" smooth="yes"/>
      <point x="193.478" y="349.543"/>
      <point x="145.783" y="351.717"/>
      <point x="145.783" y="485.935" type="curve" smooth="yes"/>
      <point x="145.783" y="597.022"/>
      <point x="182.087" y="621.783"/>
      <point x="327.739" y="621.783" type="curve" smooth="yes"/>
      <point x="461.848" y="621.783"/>
      <point x="507.065" y="610.761"/>
      <point x="507.065" y="470.826" type="curve" smooth="yes"/>
      <point x="507.065" y="369.457"/>
      <point x="456.543" y="349.543"/>
    </contour>
  </outline>
</glyph>
<glyph name="one.numr" format="2">
  <advance width="225.34783"/>
  <outline>
    <contour>
      <point x="103.13" y="308" type="line"/>
      <point x="162.413" y="308" type="line"/>
      <point x="162.413" y="685.087" type="line"/>
      <point x="119.283" y="685.087" type="line"/>
      <point x="21.109" y="634.63" type="line"/>
      <point x="21.109" y="583.326" type="line"/>
      <point x="103.13" y="621.435" type="line"/>
    </contour>
  </outline>
</glyph>
<glyph name="orn.017" format="2">
  <advance width="60"/>
  <outline>
    <contour>
      <point x="0" y="0" type="line"/>
      <point x="60" y="0" type="line"/>
      <point x="60" y="688" type="line"/>
      <point x="0" y="688" type="line"/>
    </contour>
  </outline>
</glyph>
<glyph name="zero.tosf.zero" format="2">
  <advance width="620"/>
  <outline>
    <contour>
      <point x="116.587" y="260.696" type="line"/>
      <point x="504.87" y="260.696" type="line"/>
      <point x="504.87" y="324.935" type="line"/>
      <point x="116.587" y="324.935" type="line"/>
    </contour>
    <component base="zero.osf"/>
  </outline>
</glyph>
